<svg xmlns="http://www.w3.org/2000/svg" width="400" height="165" viewBox="0 0 651 274">
        <g>
                <svg width="395" height="274" viewBox="0 0 395 280">
                        <g>
                                <svg width="395" height="274" viewBox="0 0 395 274">
                                        <g>
                                                <svg width="395" height="181" viewBox="0 0 395 181">
                                                        <path fill="#4962bf" d="M0 0h395v181H0z"
                                                                data-fill-palette-color="tertiary" />
                                                        <g transform="translate(23.4617 23.4617)">
                                                                <svg width="348.59659" height="110.50791"
                                                                        data-palette-color="#f4f2f2"
                                                                        viewBox=".5 -15.7 56.14 17.8">
                                                                        <path fill="#f4f2f2"
                                                                                d="M6.05-10.95q-.65 0-.65-.3 0-.25.38-.73.37-.47.87-.82 1.1-.7 1.73-1.2.62-.5 1.52-1.7.05.1.05.4 0 .65-.52 1.57-.53.93-1.18 1.68-.65.75-1.15.95-.45.15-1.05.15ZM1.6 1.3q-.4 0-.75-.3T.5.2q0-1.05 1.45-3.85l.55-1.1q.1-.1.28-.5.17-.4.52-1.05.35-.7.55-1.25.2-.55.3-1.05 0-.05.2-.2.2-.15.4-.25l.3-.05q.4 0 .68.15.27.15.17.4-.35.75-.6 1.3t-.4.95h-.05q-.55 1.25-.92 2.37Q3.55-2.8 3.6-1.8l.05 1.35Q3.6.05 3.3.4q-.2.15-.55.38-.35.22-.9.47-.05.05-.25.05ZM9.2.55Q8.15.55 7.35 0q-1.3-1-1.3-3t1.4-4.25q1.4-2.25 4.25-4.15.5-.35 1.35-.35 1.1 0 1.97.6.88.6.68 1.55-.35 1.55-1.53 2.75-1.17 1.2-2.75 2.12-1.57.93-3.22 1.78-.05.15-.08.3-.02.15-.02.3 0 .7.47 1.22.48.53 1.33.53.65 0 1.1-.2.8-.3 1.32-.55.53-.25 1.23-.75t1.9-1.5Q16-4 16.1-4q.3 0 .2.45-.5.8-1.73 1.75-1.22.95-2.7 1.65-1.47.7-2.67.7ZM8.5-4.3q.4 0 1.65-.8t2.35-1.75q1.9-1.75 1.9-2.7 0-.25-.15-.45-.15-.25-.45-.25-.95 0-3.2 2.25-1.55 1.5-2.1 3.7Zm8.8 6.1q-1.1 0-.91-2.7.11-.6.43-1.9.32-1.3.82-2.88.5-1.57.95-2.82.3-.85 1.08-1.6.78-.75 1.28-.75.3 0 .3.4 0 .55-.6 1.7-.76 1.4-1.2 2.37-.45.98-.73 1.96-.27.97-.58 2.37v.45q0 1.6.7 1 1.31-1.05 2.71-2.48 1.4-1.42 2.65-2.87 1.25-1.45 2-2.55.5-.8 1.17-1.23.68-.42.58-.12-.05.45-.83 1.65-.78 1.2-1.9 2.67-1.13 1.48-2.3 2.83T20.84-.6q-.34.35-1.02.93-.68.57-1.37 1.02-.7.45-1.15.45ZM29.74.55q-1.05 0-1.85-.55-1.3-1-1.3-3t1.4-4.25q1.4-2.25 4.25-4.15.5-.35 1.35-.35 1.1 0 1.98.6.87.6.67 1.55-.35 1.55-1.52 2.75-1.18 1.2-2.75 2.12-1.58.93-3.23 1.78-.05.15-.07.3-.03.15-.03.3 0 .7.48 1.22.47.53 1.32.53.65 0 1.1-.2.8-.3 1.33-.55.52-.25 1.22-.75t1.9-1.5q.55-.4.65-.4.3 0 .2.45-.5.8-1.72 1.75-1.23.95-2.7 1.65-1.48.7-2.68.7Zm-.7-4.85q.4 0 1.65-.8t2.35-1.75q1.9-1.75 1.9-2.7 0-.25-.15-.45-.15-.25-.45-.25-.95 0-3.2 2.25-1.55 1.5-2.1 3.7Zm7.75 5.35q-.65 0-.65-1.15 0-.95.45-1.85 1.15-2.2 2.1-4.35.65-1.3 1.22-2.5.58-1.2 1.08-2.2.3-.3.6-.3.65 0 .4.6-.1.35-.27.82-.18.48-.43 1.13-.8 2.1-.95 2.95 1.4-1.25 2.88-2.33 1.47-1.07 2.77-1.77t2.2-.7q.8 0 .8.65 0 .55-.5 1.17-.5.63-1 .63-.25 0-.4-.15-.15-.05-.6-.05-1.6 0-3.35 1.55-1.85 1.55-3.35 3.72Q38.29-.9 37.59.7q-.35.35-.8.35Zm8.55 1.05q-.8 0-1.4-.15-.55-.15-.55-.4 0-.4.8-.45.75-.05 1-.15.45-.1 1.05-.15.55-.1.9-.15 2.4-.7 2.4-2.15 0-1-1.05-2.55-.65-.95-.65-2.1 0-1.4.87-2.75.88-1.35 2.2-2.38 1.33-1.02 2.68-1.37.6-.15 1.25-.15 1.05 0 1.5.5.3.3.3 1.3 0 .75-.25 1.53-.25.77-.7 1.27-.25.25-.4.25-.25 0-.25-.7l.05-1q.05-.4.07-.7.03-.3.03-.5 0-.85-.35-1-.4-.1-.55-.1-1.05 0-2.25.95t-1.95 2.2q-.3.45-.3 1.1 0 .8.42 1.87.43 1.08.63 1.58.5 1.1.77 1.9.28.8.28 1.4 0 .3-.05.45.25-.1 1.2-.3.85-.2 1.45-.2.35 0 .35.15 0 .05-.3.35-.15.15-.93.47-.77.33-1.8.68-1.02.35-2.02.65-1 .3-1.7.45-1.2.35-2.75.35Z"
                                                                                class="wordmark-text-0"
                                                                                data-fill-palette-color="quaternary" />
                                                                </svg>
                                                        </g>
                                                </svg>
                                        </g>
                                        <g transform="translate(163 192)">
                                                <svg width="232" height="81" viewBox="0 0 232 81">
                                                        <g>
                                                                <svg width="232" height="81"
                                                                        data-palette-color="#4962bf"
                                                                        viewBox="4 -30 90 29">
                                                                        <g class="slogan-text-1"
                                                                                data-fill-palette-color="secondary">
                                                                                <path fill="#4962bf"
                                                                                        d="M4.6 0h-.8v-29.55h8.3q2.15 0 3.73 1.07 1.57 1.08 1.57 3.78v4.15q0 2.05-.75 3.32-.75 1.28-1.87 1.9-1.13.63-2.38.78.8.1 1.6 1.12.8 1.03 1.15 2.23L18.6 0h-.85L14.7-10q-.6-1.95-1.65-3.15-1.05-1.2-2.9-1.2H4.6V0Zm0-28.75v13.6h6.05q2.55 0 4.25-1.2 1.7-1.2 1.7-4.1v-4.1q0-2.15-1.3-3.18-1.3-1.02-3-1.02H4.6ZM29.45.35q-2.15 0-3.38-.58-1.22-.57-1.77-1.52-.55-.95-.7-2.13-.15-1.17-.15-2.32v-12.4q0-1.55.35-3.05.35-1.5 1.62-2.5 1.28-1 4.03-1 2.8 0 4.05.95t1.57 2.45q.33 1.5.33 3.15v5.45H24.25v6.8q0 1.45.27 2.82.28 1.38 1.38 2.23 1.1.85 3.55.85 2.45 0 3.52-.85 1.08-.85 1.35-2.2.28-1.35.28-2.85v-2h.8v2.15q0 1.55-.3 3.05-.3 1.5-1.55 2.5t-4.1 1Zm-5.2-18.5v4.2H34.6v-4.2q0-1.75-.25-3.15t-1.33-2.23q-1.07-.82-3.57-.82-2.2 0-3.33.77-1.12.78-1.5 2.15-.37 1.38-.37 3.28ZM47.2.35q-2.15 0-3.38-.58-1.22-.57-1.77-1.52-.55-.95-.7-2.13-.15-1.17-.15-2.32v-12.4q0-1.15.15-2.3t.7-2.13q.55-.97 1.77-1.55 1.23-.57 3.38-.57 2.1 0 3.32.57 1.23.58 1.78 1.55.55.98.7 2.13.15 1.15.15 2.3v2.2h-.8v-2.05q0-1.35-.28-2.7-.27-1.35-1.35-2.28-1.07-.92-3.52-.92t-3.55.92q-1.1.93-1.38 2.28-.27 1.35-.27 2.7v12.1q0 1.3.27 2.67.28 1.38 1.38 2.3 1.1.93 3.55.93 2.45 0 3.52-.93 1.08-.92 1.35-2.3.28-1.37.28-2.67v-2h.8v2.15q0 1.55-.3 3.05-.3 1.5-1.55 2.5t-4.1 1Zm17.24 0q-2.15 0-3.37-.58-1.23-.57-1.78-1.52-.55-.95-.7-2.13-.15-1.17-.15-2.32v-12.4q0-1.15.15-2.3t.73-2.13q.57-.97 1.82-1.55 1.25-.57 3.5-.57 2.75 0 4 1t1.63 2.5q.37 1.5.37 3.05v12.4q0 1.55-.37 3.05-.38 1.5-1.68 2.5-1.3 1-4.15 1Zm0-.8q2.6 0 3.73-.93 1.12-.92 1.4-2.3.27-1.37.27-2.67v-12.1q0-1.35-.27-2.7-.28-1.35-1.35-2.28-1.08-.92-3.58-.92-2 0-3.12.55-1.13.55-1.6 1.42-.48.88-.58 1.9-.1 1.03-.1 2.03v12.1q0 1 .1 2.02.1 1.03.55 1.9.45.88 1.53 1.43 1.07.55 3.02.55ZM77.79 0h-.8v-24.75h.7l.1 2.6q.55-1.15 1.83-2.08 1.27-.92 3.62-.92 2.1 0 3.32.57 1.23.58 1.78 1.55.55.98.7 2.13.15 1.15.15 2.3V0h-.8v-18.15q0-1.5-.25-2.93-.25-1.42-1.33-2.35-1.07-.92-3.57-.92-2.75 0-4.1 1.5-1.35 1.5-1.35 3.65V0Z"
                                                                                        data-fill-palette-color="primary" />
                                                                        </g>
                                                                </svg>
                                                        </g>
                                                </svg>
                                        </g>
                                </svg>
                        </g>
                </svg>
        </g>
        <g transform="translate(407.25085 37.43019)">
                <svg width="244" height="199" viewBox="0 0 244 199">
                        <g>
                                <svg xmlns="http://www.w3.org/2000/svg" xmlns:xlink="http://www.w3.org/1999/xlink"
                                        xml:space="preserve" width="244" height="199" class="icon-icon-0"
                                        data-fill-palette-color="accent" viewBox="10 22 69 56">
                                        <path fill="#94b7ee"
                                                d="M75.2 68.9H58.8c-.2.4-.4.8-.7 1.2-1.4 2-3.7 3.2-6.2 3.2-1.5 0-3-.5-4.2-1.3l-9.4-6.7-3.4-2.5-.3-.2c-.4-.3-.5-.9-.3-1.3.3-.4.9-.5 1.3-.3l4.7 3.1 8.6 5.9c.4.3.9.5 1.3.7.5.2 1.1.3 1.7.3 1.7 0 3.3-.8 4.3-2.3 1.6-2.4 1-5.7-1.4-7.3L31.3 45.3c-.9-.6-1.9-.9-3-.9H10.6V62h10.7l23.6 16.5c.9.6 1.9.9 3 .9h27.2c2.9 0 5.3-2.4 5.3-5.3s-2.3-5.2-5.2-5.2M49.1 50c0 7 25.4 7 25.4 0 0-6.1-4.4-11.3-10.2-12.4 3.1-1 5.3-3.9 5.3-7.3 0-4.3-3.5-7.8-7.8-7.8S54 26 54 30.3c0 3.4 2.2 6.3 5.3 7.3-5.9 1.1-10.2 6.2-10.2 12.4"
                                                data-fill-palette-color="accent" />
                                </svg>
                        </g>
                </svg>
        </g>
</svg>
