<svg version="1.1" viewBox="0 0 640 400" xmlns="http://www.w3.org/2000/svg" xmlns:xlink="http://www.w3.org/1999/xlink"
        xmlns:svgjs="http://svgjs.dev/svgjs" matcher="0.5465762248021226">
        <svg xmlns="http://www.w3.org/2000/svg" viewBox="0 0 320 360" height="360" width="320">
                <g>
                        <path xmlns="http://www.w3.org/2000/svg"
                                d="M320 204.145c-0.08-8.44-5.414-15.128-5.494-23.568-0.04-8.44 5.215-18.631 5.136-27.071-2.667-8.002-9.833-12.7-12.501-20.702-2.667-8.002-0.836-19.348-3.463-27.35-5.016-6.808-13.297-9.037-18.274-15.805-5.016-6.808-6.768-18.154-11.744-24.921-6.847-4.897-15.407-4.499-22.294-9.396-6.847-4.897-12.023-15.168-18.91-20.065-8.042-2.548-16.044 0.518-24.086-2.07-8.042-2.548-16.123-10.709-24.165-13.257-8.44 0.08-15.128 5.414-23.568 5.494-8.44 0.04-18.631-5.215-27.071-5.135-8.002 2.667-12.7 9.833-20.702 12.5-8.002 2.667-19.348 0.836-27.35 3.504-6.808 5.016-9.037 13.297-15.805 18.273-6.808 5.016-18.154 6.768-24.922 11.784-4.897 6.847-4.499 15.407-9.395 22.294-4.897 6.847-15.168 12.023-20.065 18.91-2.548 8.042 0.478 16.044-2.07 24.086-2.548 8.042-10.709 16.123-13.257 24.165 0.04 8.44 5.414 15.128 5.494 23.568 0.04 8.44-5.215 18.631-5.136 27.071 2.667 8.002 9.833 12.7 12.501 20.702 2.667 8.002 0.836 19.348 3.503 27.35 5.016 6.808 13.297 9.037 18.273 15.845 5.016 6.808 6.768 18.154 11.745 24.921 6.847 4.897 15.407 4.499 22.294 9.396 6.847 4.897 12.023 15.168 18.91 20.065 8.042 2.548 16.044-0.478 24.086 2.07 8.042 2.548 16.123 10.709 24.165 13.257 8.44-0.08 15.128-5.414 23.568-5.494 8.44-0.04 18.631 5.215 27.071 5.135 8.002-2.667 12.7-9.833 20.702-12.5 8.002-2.667 19.348-0.836 27.35-3.504 6.808-5.016 9.037-13.297 15.845-18.273 6.808-5.016 18.154-6.768 24.921-11.744 4.897-6.847 4.499-15.407 9.396-22.294 4.897-6.847 15.168-12.023 20.064-18.91 2.548-8.042-0.478-16.044 2.071-24.086 2.468-8.121 10.63-16.203 13.177-24.245zM305.987 227.395c-3.623 7.126-12.501 13.456-16.164 20.582-3.623 7.126-2.03 15.088-5.653 22.215-5.653 5.653-16.044 8.918-21.737 14.57-5.653 5.653-6.569 13.735-12.261 19.388-7.126 3.623-18.034 3.503-25.161 7.166-7.126 3.623-10.51 11.028-17.636 14.651-7.922 1.234-18.233-2.229-26.156-0.996-7.922 1.234-13.416 7.246-21.299 8.48-7.922-1.234-16.641-7.763-24.563-8.997-7.922-1.274-14.969 2.747-22.891 1.473-7.126-3.623-13.456-12.54-20.582-16.163-7.126-3.623-15.088-2.03-22.255-5.654-5.653-5.653-8.918-16.044-14.571-21.736-5.653-5.653-13.735-6.609-19.387-12.262-3.623-7.126-3.503-18.034-7.166-25.161-3.623-7.126-11.028-10.51-14.651-17.636-1.234-7.922 2.229-18.233 0.995-26.156-1.274-7.922-7.246-13.416-8.479-21.298 1.274-7.922 7.763-16.641 8.997-24.564 1.234-7.922-2.747-14.969-1.473-22.891 3.623-7.126 12.54-13.456 16.163-20.582 3.623-7.126 2.03-15.088 5.653-22.254 5.653-5.653 16.044-8.918 21.737-14.571 5.653-5.653 6.609-13.735 12.262-19.388 7.126-3.623 18.034-3.503 25.16-7.166 7.126-3.623 10.51-11.028 17.637-14.651 7.922-1.234 18.233 2.229 26.155 0.996 7.922-1.234 13.416-7.246 21.299-8.48 7.922 1.234 16.641 7.763 24.564 8.997 7.922 1.274 14.969-2.747 22.891-1.473 7.126 3.623 13.456 12.54 20.582 16.163 7.126 3.623 15.088 2.03 22.254 5.654 5.653 5.653 8.918 16.044 14.571 21.736 5.653 5.653 13.735 6.609 19.388 12.262 3.623 7.126 3.503 18.034 7.166 25.161 3.623 7.126 11.028 10.51 14.65 17.636 1.274 7.922-2.229 18.233-0.995 26.156 1.234 7.922 7.246 13.416 8.48 21.298-1.234 7.922-7.763 16.641-8.997 24.564-1.234 7.922 2.747 15.009 1.473 22.931z"
                                fill="#4962bf" fill-rule="nonzero" stroke="none" stroke-width="1" stroke-linecap="butt"
                                stroke-linejoin="miter" stroke-miterlimit="10" stroke-dasharray="" stroke-dashoffset="0"
                                font-family="none" font-weight="none" font-size="none" text-anchor="none"
                                style="mix-blend-mode: normal" data-fill-palette-color="tertiary">
                        </path>
                </g>
                <g transform="matrix(1,0,0,1,75.92889904360567,80.99999999999999)">
                        <svg viewBox="0 0 168.14220191278866 198.00000000000003" height="198.00000000000003"
                                width="168.14220191278866">
                                <g><svg viewBox="0 0 224 263.7767288369658" height="198.00000000000003"
                                                width="168.14220191278866">
                                                <g transform="matrix(1,0,0,1,0,122.24393174653478)">
                                                        <svg viewBox="0 0 224 141.532797090431"
                                                                height="141.532797090431" width="224">
                                                                <g id="textblocktransform">
                                                                        <svg viewBox="0 0 224 141.532797090431"
                                                                                height="141.532797090431" width="224"
                                                                                id="textblock">
                                                                                <g><svg viewBox="0 0 224 96.67956047276937"
                                                                                                height="96.67956047276937"
                                                                                                width="224">
                                                                                                <rect width="224"
                                                                                                        height="96.67956047276937"
                                                                                                        x="0" y="0"
                                                                                                        opacity="1"
                                                                                                        fill="#4962bf"
                                                                                                        data-fill-palette-color="tertiary">
                                                                                                </rect>
                                                                                                <g
                                                                                                        transform="matrix(1,0,0,1,18.792142380000005,18.792142380000005)">
                                                                                                        <svg width="186.41571524"
                                                                                                                viewBox="0.5 -15.699999809265137 56.13999938964844 17.80000114440918"
                                                                                                                height="59.09527571276936"
                                                                                                                data-palette-color="#f4f2f2">
                                                                                                                <path d="M6.05-10.95L6.05-10.95Q5.4-10.95 5.4-11.25L5.4-11.25Q5.4-11.5 5.78-11.98 6.15-12.45 6.65-12.8L6.65-12.8Q7.75-13.5 8.38-14 9-14.5 9.9-15.7L9.9-15.7Q9.95-15.6 9.95-15.3L9.95-15.3Q9.95-14.65 9.43-13.73 8.9-12.8 8.25-12.05 7.6-11.3 7.1-11.1L7.1-11.1Q6.65-10.95 6.05-10.95ZM1.6 1.3L1.6 1.3Q1.2 1.3 0.85 1 0.5 0.7 0.5 0.2L0.5 0.2Q0.5-0.85 1.95-3.65L1.95-3.65 2.5-4.75Q2.6-4.85 2.78-5.25 2.95-5.65 3.3-6.3L3.3-6.3Q3.65-7 3.85-7.55 4.05-8.1 4.15-8.6L4.15-8.6Q4.15-8.65 4.35-8.8 4.55-8.95 4.75-9.05L4.75-9.05 5.05-9.1Q5.45-9.1 5.73-8.95 6-8.8 5.9-8.55L5.9-8.55Q5.55-7.8 5.3-7.25 5.05-6.7 4.9-6.3L4.9-6.3 4.85-6.3Q4.3-5.05 3.93-3.93 3.55-2.8 3.6-1.8L3.6-1.8 3.65-0.45Q3.6 0.05 3.3 0.4L3.3 0.4Q3.1 0.55 2.75 0.78 2.4 1 1.85 1.25L1.85 1.25Q1.8 1.3 1.6 1.3ZM9.2 0.55L9.2 0.55Q8.15 0.55 7.35 0L7.35 0Q6.05-1 6.05-3L6.05-3Q6.05-5 7.45-7.25 8.85-9.5 11.7-11.4L11.7-11.4Q12.2-11.75 13.05-11.75L13.05-11.75Q14.15-11.75 15.02-11.15 15.9-10.55 15.7-9.6L15.7-9.6Q15.35-8.05 14.17-6.85 13-5.65 11.42-4.73 9.85-3.8 8.2-2.95L8.2-2.95Q8.15-2.8 8.12-2.65 8.1-2.5 8.1-2.35L8.1-2.35Q8.1-1.65 8.57-1.13 9.05-0.6 9.9-0.6L9.9-0.6Q10.55-0.6 11-0.8L11-0.8Q11.8-1.1 12.32-1.35 12.85-1.6 13.55-2.1 14.25-2.6 15.45-3.6L15.45-3.6Q16-4 16.1-4L16.1-4Q16.4-4 16.3-3.55L16.3-3.55Q15.8-2.75 14.57-1.8 13.35-0.85 11.87-0.15 10.4 0.55 9.2 0.55ZM8.5-4.3L8.5-4.3Q8.9-4.3 10.15-5.1 11.4-5.9 12.5-6.85L12.5-6.85Q14.4-8.6 14.4-9.55L14.4-9.55Q14.4-9.8 14.25-10L14.25-10Q14.1-10.25 13.8-10.25L13.8-10.25Q12.85-10.25 10.6-8L10.6-8Q9.05-6.5 8.5-4.3ZM17.3 1.8L17.3 1.8Q16.2 1.8 16.39-0.9L16.39-0.9Q16.5-1.5 16.82-2.8 17.14-4.1 17.64-5.68 18.14-7.25 18.59-8.5L18.59-8.5Q18.89-9.35 19.67-10.1 20.45-10.85 20.95-10.85L20.95-10.85Q21.25-10.85 21.25-10.45L21.25-10.45Q21.25-9.9 20.65-8.75L20.65-8.75Q19.89-7.35 19.45-6.38 19-5.4 18.72-4.42 18.45-3.45 18.14-2.05L18.14-2.05 18.14-1.6Q18.14 0 18.84-0.6L18.84-0.6Q20.15-1.65 21.55-3.08 22.95-4.5 24.2-5.95 25.45-7.4 26.2-8.5L26.2-8.5Q26.7-9.3 27.37-9.73 28.05-10.15 27.95-9.85L27.95-9.85Q27.9-9.4 27.12-8.2 26.34-7 25.22-5.53 24.09-4.05 22.92-2.7 21.75-1.35 20.84-0.6L20.84-0.6Q20.5-0.25 19.82 0.33 19.14 0.9 18.45 1.35 17.75 1.8 17.3 1.8ZM29.74 0.55L29.74 0.55Q28.69 0.55 27.89 0L27.89 0Q26.59-1 26.59-3L26.59-3Q26.59-5 27.99-7.25 29.39-9.5 32.24-11.4L32.24-11.4Q32.74-11.75 33.59-11.75L33.59-11.75Q34.69-11.75 35.57-11.15 36.44-10.55 36.24-9.6L36.24-9.6Q35.89-8.05 34.72-6.85 33.54-5.65 31.97-4.73 30.39-3.8 28.74-2.95L28.74-2.95Q28.69-2.8 28.67-2.65 28.64-2.5 28.64-2.35L28.64-2.35Q28.64-1.65 29.12-1.13 29.59-0.6 30.44-0.6L30.44-0.6Q31.09-0.6 31.54-0.8L31.54-0.8Q32.34-1.1 32.87-1.35 33.39-1.6 34.09-2.1 34.79-2.6 35.99-3.6L35.99-3.6Q36.54-4 36.64-4L36.64-4Q36.94-4 36.84-3.55L36.84-3.55Q36.34-2.75 35.12-1.8 33.89-0.85 32.42-0.15 30.94 0.55 29.74 0.55ZM29.04-4.3L29.04-4.3Q29.44-4.3 30.69-5.1 31.94-5.9 33.04-6.85L33.04-6.85Q34.94-8.6 34.94-9.55L34.94-9.55Q34.94-9.8 34.79-10L34.79-10Q34.64-10.25 34.34-10.25L34.34-10.25Q33.39-10.25 31.14-8L31.14-8Q29.59-6.5 29.04-4.3ZM36.79 1.05L36.79 1.05Q36.14 1.05 36.14-0.1L36.14-0.1Q36.14-1.05 36.59-1.95L36.59-1.95Q37.74-4.15 38.69-6.3L38.69-6.3Q39.34-7.6 39.91-8.8 40.49-10 40.99-11L40.99-11Q41.29-11.3 41.59-11.3L41.59-11.3Q42.24-11.3 41.99-10.7L41.99-10.7Q41.89-10.35 41.72-9.88 41.54-9.4 41.29-8.75L41.29-8.75Q40.49-6.65 40.34-5.8L40.34-5.8Q41.74-7.05 43.22-8.13 44.69-9.2 45.99-9.9 47.29-10.6 48.19-10.6L48.19-10.6Q48.99-10.6 48.99-9.95L48.99-9.95Q48.99-9.4 48.49-8.78 47.99-8.15 47.49-8.15L47.49-8.15Q47.24-8.15 47.09-8.3L47.09-8.3Q46.94-8.35 46.49-8.35L46.49-8.35Q44.89-8.35 43.14-6.8L43.14-6.8Q41.29-5.25 39.79-3.08 38.29-0.9 37.59 0.7L37.59 0.7Q37.24 1.05 36.79 1.05ZM45.34 2.1L45.34 2.1Q44.54 2.1 43.94 1.95L43.94 1.95Q43.39 1.8 43.39 1.55L43.39 1.55Q43.39 1.15 44.19 1.1L44.19 1.1Q44.94 1.05 45.19 0.95L45.19 0.95Q45.64 0.85 46.24 0.8L46.24 0.8Q46.79 0.7 47.14 0.65L47.14 0.65Q49.54-0.05 49.54-1.5L49.54-1.5Q49.54-2.5 48.49-4.05L48.49-4.05Q47.84-5 47.84-6.15L47.84-6.15Q47.84-7.55 48.71-8.9 49.59-10.25 50.91-11.28 52.24-12.3 53.59-12.65L53.59-12.65Q54.19-12.8 54.84-12.8L54.84-12.8Q55.89-12.8 56.34-12.3L56.34-12.3Q56.64-12 56.64-11L56.64-11Q56.64-10.25 56.39-9.47 56.14-8.7 55.69-8.2L55.69-8.2Q55.44-7.95 55.29-7.95L55.29-7.95Q55.04-7.95 55.04-8.65L55.04-8.65 55.09-9.65Q55.14-10.05 55.16-10.35 55.19-10.65 55.19-10.85L55.19-10.85Q55.19-11.7 54.84-11.85L54.84-11.85Q54.44-11.95 54.29-11.95L54.29-11.95Q53.24-11.95 52.04-11 50.84-10.05 50.09-8.8L50.09-8.8Q49.79-8.35 49.79-7.7L49.79-7.7Q49.79-6.9 50.21-5.83 50.64-4.75 50.84-4.25L50.84-4.25Q51.34-3.15 51.61-2.35 51.89-1.55 51.89-0.95L51.89-0.95Q51.89-0.65 51.84-0.5L51.84-0.5Q52.09-0.6 53.04-0.8L53.04-0.8Q53.89-1 54.49-1L54.49-1Q54.84-1 54.84-0.85L54.84-0.85Q54.84-0.8 54.54-0.5L54.54-0.5Q54.39-0.35 53.61-0.03 52.84 0.3 51.81 0.65 50.79 1 49.79 1.3 48.79 1.6 48.09 1.75L48.09 1.75Q46.89 2.1 45.34 2.1Z"
                                                                                                                        opacity="1"
                                                                                                                        transform="matrix(1,0,0,1,0,0)"
                                                                                                                        fill="#f4f2f2"
                                                                                                                        class="wordmark-text-0"
                                                                                                                        data-fill-palette-color="quaternary"
                                                                                                                        id="text-0">
                                                                                                                </path>
                                                                                                        </svg>
                                                                                                </g>
                                                                                        </svg>
                                                                                </g>
                                                                                <g
                                                                                        transform="matrix(1,0,0,1,0,106.07563166276937)">
                                                                                        <svg viewBox="0 0 224 35.457165427661614"
                                                                                                height="35.457165427661614"
                                                                                                width="224">
                                                                                                <g
                                                                                                        transform="matrix(1,0,0,1,0,0)">
                                                                                                        <svg width="224"
                                                                                                                viewBox="3.799999952316284 -29.549999237060547 188.88999938964844 29.900001525878906"
                                                                                                                height="35.457165427661614"
                                                                                                                data-palette-color="#4962bf">
                                                                                                                <g class="slogan-text-1"
                                                                                                                        data-fill-palette-color="secondary"
                                                                                                                        id="text-1">
                                                                                                                        <path d="M4.6 0L3.8 0 3.8-29.55 12.1-29.55Q14.25-29.55 15.83-28.48 17.4-27.4 17.4-24.7L17.4-24.7 17.4-20.55Q17.4-18.5 16.65-17.23 15.9-15.95 14.78-15.33 13.65-14.7 12.4-14.55L12.4-14.55Q13.2-14.45 14-13.43 14.8-12.4 15.15-11.2L15.15-11.2 18.6 0 17.75 0 14.7-10Q14.1-11.95 13.05-13.15 12-14.35 10.15-14.35L10.15-14.35 4.6-14.35 4.6 0ZM4.6-28.75L4.6-15.15 10.65-15.15Q13.2-15.15 14.9-16.35 16.6-17.55 16.6-20.45L16.6-20.45 16.6-24.55Q16.6-26.7 15.3-27.73 14-28.75 12.3-28.75L12.3-28.75 4.6-28.75ZM55.32 0.35L55.32 0.35Q53.17 0.35 51.95-0.23 50.72-0.8 50.17-1.75 49.62-2.7 49.47-3.88 49.32-5.05 49.32-6.2L49.32-6.2 49.32-18.6Q49.32-20.15 49.67-21.65 50.02-23.15 51.3-24.15 52.57-25.15 55.32-25.15L55.32-25.15Q58.12-25.15 59.37-24.2 60.62-23.25 60.95-21.75 61.27-20.25 61.27-18.6L61.27-18.6 61.27-13.15 50.12-13.15 50.12-6.35Q50.12-4.9 50.4-3.53 50.67-2.15 51.77-1.3 52.87-0.45 55.32-0.45L55.32-0.45Q57.77-0.45 58.85-1.3 59.92-2.15 60.2-3.5 60.47-4.85 60.47-6.35L60.47-6.35 60.47-8.35 61.27-8.35 61.27-6.2Q61.27-4.65 60.97-3.15 60.67-1.65 59.42-0.65 58.17 0.35 55.32 0.35ZM50.12-18.15L50.12-13.95 60.47-13.95 60.47-18.15Q60.47-19.9 60.22-21.3 59.97-22.7 58.9-23.53 57.82-24.35 55.32-24.35L55.32-24.35Q53.12-24.35 52-23.58 50.87-22.8 50.5-21.43 50.12-20.05 50.12-18.15L50.12-18.15ZM98.95 0.35L98.95 0.35Q96.8 0.35 95.57-0.23 94.35-0.8 93.8-1.75 93.25-2.7 93.1-3.88 92.95-5.05 92.95-6.2L92.95-6.2 92.95-18.6Q92.95-19.75 93.1-20.9 93.25-22.05 93.8-23.03 94.35-24 95.57-24.58 96.8-25.15 98.95-25.15L98.95-25.15Q101.05-25.15 102.27-24.58 103.5-24 104.05-23.03 104.6-22.05 104.75-20.9 104.9-19.75 104.9-18.6L104.9-18.6 104.9-16.4 104.1-16.4 104.1-18.45Q104.1-19.8 103.82-21.15 103.55-22.5 102.47-23.43 101.4-24.35 98.95-24.35L98.95-24.35Q96.5-24.35 95.4-23.43 94.3-22.5 94.02-21.15 93.75-19.8 93.75-18.45L93.75-18.45 93.75-6.35Q93.75-5.05 94.02-3.68 94.3-2.3 95.4-1.38 96.5-0.45 98.95-0.45L98.95-0.45Q101.4-0.45 102.47-1.38 103.55-2.3 103.82-3.68 104.1-5.05 104.1-6.35L104.1-6.35 104.1-8.35 104.9-8.35 104.9-6.2Q104.9-4.65 104.6-3.15 104.3-1.65 103.05-0.65 101.8 0.35 98.95 0.35ZM142.07 0.35L142.07 0.35Q139.92 0.35 138.69-0.23 137.47-0.8 136.92-1.75 136.37-2.7 136.22-3.88 136.07-5.05 136.07-6.2L136.07-6.2 136.07-18.6Q136.07-19.75 136.22-20.9 136.37-22.05 136.94-23.03 137.52-24 138.77-24.58 140.02-25.15 142.27-25.15L142.27-25.15Q145.02-25.15 146.27-24.15 147.52-23.15 147.89-21.65 148.27-20.15 148.27-18.6L148.27-18.6 148.27-6.2Q148.27-4.65 147.89-3.15 147.52-1.65 146.22-0.65 144.92 0.35 142.07 0.35ZM142.07-0.45L142.07-0.45Q144.67-0.45 145.79-1.38 146.92-2.3 147.19-3.68 147.47-5.05 147.47-6.35L147.47-6.35 147.47-18.45Q147.47-19.8 147.19-21.15 146.92-22.5 145.84-23.43 144.77-24.35 142.27-24.35L142.27-24.35Q140.27-24.35 139.14-23.8 138.02-23.25 137.54-22.38 137.07-21.5 136.97-20.48 136.87-19.45 136.87-18.45L136.87-18.45 136.87-6.35Q136.87-5.35 136.97-4.33 137.07-3.3 137.52-2.43 137.97-1.55 139.04-1 140.12-0.45 142.07-0.45ZM181.29 0L180.49 0 180.49-24.75 181.19-24.75 181.29-22.15Q181.84-23.3 183.12-24.23 184.39-25.15 186.74-25.15L186.74-25.15Q188.84-25.15 190.07-24.58 191.29-24 191.84-23.03 192.39-22.05 192.54-20.9 192.69-19.75 192.69-18.6L192.69-18.6 192.69 0 191.89 0 191.89-18.15Q191.89-19.65 191.64-21.08 191.39-22.5 190.32-23.43 189.24-24.35 186.74-24.35L186.74-24.35Q183.99-24.35 182.64-22.85 181.29-21.35 181.29-19.2L181.29-19.2 181.29 0Z"
                                                                                                                                fill="#4962bf"
                                                                                                                                data-fill-palette-color="primary">
                                                                                                                        </path>
                                                                                                                </g>
                                                                                                        </svg>
                                                                                                </g>
                                                                                        </svg>
                                                                                </g>
                                                                        </svg>
                                                                </g>
                                                        </svg>
                                                </g>
                                                <g transform="matrix(1,0,0,1,42.784000000000006,0)">
                                                        <svg viewBox="0 0 138.432 112.84786055653478"
                                                                height="112.84786055653478" width="138.432">
                                                                <g><svg xmlns="http://www.w3.org/2000/svg"
                                                                                xmlns:xlink="http://www.w3.org/1999/xlink"
                                                                                version="1.1" x="0" y="0"
                                                                                viewBox="10.600000381469727 22.5 69.80000305175781 56.900001525878906"
                                                                                enable-background="new 0 0 100 100"
                                                                                xml:space="preserve"
                                                                                height="112.84786055653478"
                                                                                width="138.432" class="icon-icon-0"
                                                                                data-fill-palette-color="accent"
                                                                                id="icon-0">
                                                                                <path d="M75.2 68.9H58.8C58.6 69.3 58.4 69.7 58.1 70.1 56.7 72.1 54.4 73.3 51.9 73.3 50.4 73.3 48.9 72.8 47.7 72L38.3 65.3 34.9 62.8 34.6 62.6C34.2 62.3 34.1 61.7 34.3 61.3 34.6 60.9 35.2 60.8 35.6 61L40.3 64.1 48.9 70C49.3 70.3 49.8 70.5 50.2 70.7 50.7 70.9 51.3 71 51.9 71 53.6 71 55.2 70.2 56.2 68.7 57.8 66.3 57.2 63 54.8 61.4L31.3 45.3C30.4 44.7 29.4 44.4 28.3 44.4H10.6V62H21.3L44.9 78.5C45.8 79.1 46.8 79.4 47.9 79.4H75.1C78 79.4 80.4 77 80.4 74.1S78.1 68.9 75.2 68.9"
                                                                                        fill="#94b7ee"
                                                                                        data-fill-palette-color="accent">
                                                                                </path>
                                                                                <path d="M49.1 50C49.1 57 74.5 57 74.5 50 74.5 43.9 70.1 38.7 64.3 37.6 67.4 36.6 69.6 33.7 69.6 30.3 69.6 26 66.1 22.5 61.8 22.5S54 26 54 30.3C54 33.7 56.2 36.6 59.3 37.6 53.4 38.7 49.1 43.8 49.1 50"
                                                                                        fill="#94b7ee"
                                                                                        data-fill-palette-color="accent">
                                                                                </path>
                                                                        </svg>
                                                                </g>
                                                        </svg>
                                                </g>
                                                <g />
                                        </svg></g>
                        </svg>
                </g>
        </svg>
</svg>
