<svg width="800" height="100" viewBox="0 0 800 100" xmlns="http://www.w3.org/2000/svg">
  <defs>
    <linearGradient id="gradient" x1="0%" y1="0%" x2="0%" y2="100%">
      <stop offset="0%" stop-color="#007B5F" stop-opacity="0.4"/>
      <stop offset="100%" stop-color="#007B5F" stop-opacity="0.1"/>
    </linearGradient>
  </defs>
  <path d="M0,80 L50,70 L100,75 L150,65 L200,60 L250,55 L300,50 L350,45 L400,30 L450,35 L500,25 L550,30 L600,15 L650,20 L700,10 L750,15 L800,5" 
        fill="none" stroke="#007B5F" stroke-width="2.5"/>
  <path d="M0,80 L50,70 L100,75 L150,65 L200,60 L250,55 L300,50 L350,45 L400,30 L450,35 L500,25 L550,30 L600,15 L650,20 L700,10 L750,15 L800,5 L800,100 L0,100 Z" 
        fill="url(#gradient)"/>
  
  <!-- Dots -->
  <circle cx="200" cy="60" r="4" fill="#007B5F"/>
  <circle cx="400" cy="30" r="4" fill="#007B5F"/>
  <circle cx="600" cy="15" r="4" fill="#007B5F"/>
  
  <!-- Highlight Dot -->
  <circle cx="600" cy="15" r="5" fill="#FFFFFF" stroke="#007B5F" stroke-width="2"/>
  
  <!-- Tooltip at Highlight Dot -->
  <rect x="575" y="0" width="50" height="20" rx="3" fill="#0F345E"/>
  <text x="600" y="14" text-anchor="middle" fill="#FFFFFF" font-family="Arial" font-size="11">$19.2k</text>
</svg> 