<svg width="218" height="45" viewBox="0 0 218 45" fill="none" xmlns="http://www.w3.org/2000/svg">
<path d="M217.348 1.30417V43.2268H218V1.30417H217.348Z" fill="#FEC90A"/>
<path d="M99.0159 1.1734V43.096H98.3636V1.1734H99.0159Z" fill="#FEC90A"/>
<path d="M115.053 18.3222C113.018 18.3222 111.974 17.2915 111.974 15.2563V14.4344H111.283V15.4912C111.283 16.013 111.361 16.4957 111.518 16.9393C111.674 17.3698 111.909 17.7481 112.222 18.0612C112.535 18.3744 112.926 18.6222 113.396 18.7918C113.866 18.9614 114.414 19.0527 115.027 19.0527C116.214 19.0527 117.153 18.7396 117.792 18.1265C118.432 17.5133 118.771 16.6001 118.771 15.3998V8.23753H118.066V15.3737C118.066 16.4174 117.832 17.1741 117.362 17.6307C116.879 18.0873 116.097 18.3222 115.053 18.3222Z" fill="#56575B"/>
<path d="M137.243 15.83H134.086C133.551 15.83 133.199 15.6604 133.003 15.3212C132.821 14.995 132.729 14.5515 132.729 13.9905V11.4465H132.025V14.6167C132.025 14.9037 131.986 15.1385 131.895 15.2951C131.803 15.4647 131.686 15.5821 131.529 15.6604C131.386 15.7386 131.216 15.7778 131.02 15.7908C130.838 15.8039 128.359 15.8169 128.255 15.8169C127.72 15.8169 127.355 15.6473 127.172 15.3081C126.989 14.982 126.898 14.5384 126.898 13.9774V11.4335H126.194V14.6036C126.194 14.8907 126.154 15.1255 126.063 15.282C125.972 15.4516 125.854 15.5691 125.698 15.6473C125.554 15.7256 125.385 15.7647 125.189 15.7778C125.006 15.7908 124.824 15.8039 124.615 15.8039H122.867C122.606 15.8039 122.397 15.7778 122.228 15.7256C122.058 15.6734 121.915 15.5951 121.823 15.4777C121.732 15.3603 121.654 15.2168 121.628 15.0472C121.588 14.8776 121.575 14.6819 121.575 14.4471V8.19806H120.884V14.7602C120.884 15.0994 120.923 15.3864 121.014 15.6082C121.106 15.83 121.223 16.0126 121.38 16.1431C121.536 16.2735 121.732 16.3779 121.954 16.4301C122.176 16.4823 122.436 16.5214 122.71 16.5214H124.732C124.993 16.5214 125.215 16.5084 125.411 16.4823C125.607 16.4562 125.776 16.417 125.946 16.3649C126.102 16.3127 126.233 16.2344 126.363 16.13C126.481 16.0257 126.598 15.8952 126.702 15.7386L126.781 15.6082L126.846 15.7517C126.963 16.0387 127.159 16.2344 127.394 16.3518C127.629 16.4562 127.903 16.5214 128.203 16.5214H128.229C128.255 16.5214 131.06 16.5084 131.255 16.4823C131.451 16.4562 131.634 16.417 131.777 16.3649C131.934 16.3127 132.064 16.2344 132.195 16.13C132.312 16.0257 132.429 15.8952 132.534 15.7386L132.612 15.6082L132.677 15.7517C132.795 16.0387 132.99 16.2344 133.225 16.3518C133.46 16.4562 133.734 16.5214 134.034 16.5214H134.06H137.948V11.4204H137.243V15.83Z" fill="#56575B"/>
<path d="M143.1 10.8337C143.609 11.0946 144.118 11.3817 144.6 11.7078C145.109 12.034 145.566 12.3732 145.957 12.7254C146.349 13.0646 146.675 13.4169 146.909 13.7561C147.157 14.0953 147.275 14.4214 147.275 14.6954C147.275 14.9172 147.236 15.1129 147.157 15.2564C147.079 15.4129 146.975 15.5303 146.831 15.6217C146.701 15.713 146.544 15.7782 146.362 15.8043C146.192 15.8434 145.996 15.8565 145.788 15.8565H142.083C141.822 15.8565 141.613 15.8304 141.443 15.7782C141.274 15.726 141.13 15.6477 141.039 15.5303C140.948 15.4129 140.869 15.2694 140.843 15.0998C140.804 14.9302 140.791 14.7345 140.791 14.4997V8.25058H140.1V14.8128C140.1 15.152 140.139 15.439 140.23 15.6608C140.321 15.8826 140.439 16.0652 140.595 16.1957C140.752 16.3261 140.948 16.4305 141.169 16.4827C141.391 16.5349 141.652 16.574 141.926 16.574H145.774C146.231 16.574 146.609 16.5088 146.883 16.3914C147.157 16.274 147.379 16.1174 147.536 15.9478C147.692 15.7782 147.797 15.5825 147.849 15.3738C147.901 15.165 147.927 14.9563 147.927 14.7737C147.927 14.5127 147.862 14.2257 147.731 13.9257C147.601 13.6256 147.379 13.2994 147.066 12.9472C146.753 12.5949 146.348 12.2296 145.866 11.8513C145.37 11.4599 144.77 11.0685 144.052 10.6511L143.909 10.5728L148.475 8.57673V7.89833L143.518 10.1031C143.452 10.1684 143.374 10.2858 143.283 10.4423C143.191 10.5467 143.139 10.6902 143.1 10.8337Z" fill="#56575B"/>
<path d="M159.159 12.4382C159.355 12.3338 159.629 12.2555 159.955 12.2294C160.112 12.2164 160.242 12.2033 160.372 12.2164C160.529 12.2164 160.673 12.2294 160.777 12.2294C161.103 12.2686 161.377 12.3338 161.573 12.4382C161.781 12.5425 161.925 12.7121 162.003 12.9339C162.081 13.1426 162.121 13.4297 162.121 13.7689V16.5607H166.908V11.4988H166.204V15.8432H162.825V13.3383C162.825 12.9861 162.786 12.686 162.695 12.4512C162.603 12.2164 162.46 12.0207 162.264 11.8772C162.068 11.7337 161.781 11.6163 161.442 11.551C161.09 11.4858 160.751 11.4467 160.359 11.4467C159.981 11.4467 159.616 11.4858 159.277 11.551C158.937 11.6163 158.65 11.7206 158.455 11.8772C158.259 12.0207 158.116 12.2164 158.024 12.4512C157.933 12.686 157.894 12.9861 157.894 13.3383V16.7303C157.894 17.0695 157.855 17.3565 157.776 17.5653C157.698 17.7871 157.555 17.9567 157.346 18.061C157.15 18.1654 156.876 18.2437 156.55 18.2698C156.224 18.2959 155.82 18.322 155.324 18.322H154.019C153.523 18.322 153.119 18.3089 152.793 18.2698C152.467 18.2306 152.193 18.1654 151.997 18.061C151.788 17.9567 151.645 17.7871 151.567 17.5653C151.488 17.3565 151.449 17.0695 151.449 16.7303V15.1648H150.745V17.1608C150.745 17.5131 150.784 17.8132 150.875 18.048C150.967 18.2828 151.11 18.4785 151.306 18.622C151.501 18.7655 151.788 18.8829 152.128 18.9482C152.48 19.0134 152.91 19.0525 153.432 19.0525H155.924C156.446 19.0525 156.876 19.0134 157.228 18.9482C157.568 18.8829 157.842 18.7786 158.05 18.622C158.246 18.4785 158.39 18.2828 158.481 18.048C158.572 17.8132 158.611 17.5131 158.611 17.1608V13.7689C158.611 13.4297 158.65 13.1426 158.729 12.9339C158.807 12.7121 158.95 12.5425 159.159 12.4382Z" fill="#56575B"/>
<path d="M204.622 12.5818C204.309 12.1774 203.892 11.8512 203.409 11.6164C202.913 11.3816 202.313 11.2642 201.635 11.2642C201.322 11.2642 201.022 11.2903 200.735 11.3555C200.474 11.4077 200.252 11.4599 200.082 11.512V12.1774C200.265 12.1382 200.474 12.0991 200.709 12.073C200.983 12.0339 201.244 12.0208 201.491 12.0208C201.935 12.0208 202.365 12.0861 202.77 12.2165C203.174 12.347 203.527 12.5688 203.827 12.8688C204.127 13.1689 204.361 13.5603 204.531 14.0299C204.701 14.4996 204.792 15.0866 204.792 15.752V15.8303H198.556V13.3124C198.556 12.9601 198.517 12.6601 198.426 12.4253C198.334 12.1904 198.191 11.9947 197.995 11.8512C197.799 11.7077 197.512 11.5903 197.173 11.5251C196.821 11.4599 196.482 11.4207 196.09 11.4207C195.712 11.4207 195.347 11.4599 195.008 11.5251C194.668 11.5903 194.381 11.6947 194.186 11.8512C193.99 11.9947 193.847 12.1904 193.755 12.4253C193.664 12.6601 193.625 12.9601 193.625 13.3124V16.7044C193.625 17.0436 193.586 17.3306 193.507 17.5393C193.429 17.7611 193.286 17.9307 193.077 18.0351C192.881 18.1394 192.607 18.2177 192.281 18.2438C191.955 18.2699 191.551 18.296 191.055 18.296H189.75C189.254 18.296 188.85 18.2829 188.524 18.2438C188.198 18.2046 187.924 18.1394 187.728 18.0351C187.519 17.9307 187.376 17.7611 187.298 17.5393C187.219 17.3306 187.18 17.0436 187.18 16.7044V15.1388H186.476V17.1349C186.476 17.4871 186.515 17.7872 186.606 18.022C186.698 18.2568 186.841 18.4525 187.037 18.596C187.232 18.7395 187.519 18.857 187.859 18.9222C188.211 18.9874 188.641 19.0265 189.163 19.0265H191.655C192.177 19.0265 192.607 18.9874 192.959 18.9222C193.299 18.857 193.573 18.7526 193.781 18.596C193.977 18.4525 194.121 18.2568 194.212 18.022C194.303 17.7872 194.342 17.4871 194.342 17.1349V13.7429C194.342 13.4037 194.381 13.1167 194.46 12.908C194.538 12.6862 194.682 12.5166 194.89 12.4122C195.086 12.3078 195.36 12.2296 195.686 12.2035C195.83 12.1904 195.973 12.1774 196.103 12.1904C196.26 12.1904 196.391 12.1904 196.508 12.2035C196.834 12.2426 197.108 12.3078 197.304 12.4122C197.512 12.5166 197.656 12.6862 197.734 12.908C197.812 13.1167 197.852 13.4037 197.852 13.7429V16.5348H205.562V15.7259C205.562 15.1258 205.483 14.5387 205.34 14.0038C205.183 13.4559 204.949 12.9862 204.622 12.5818Z" fill="#56575B"/>
<path d="M181.115 11.8512C180.92 11.7077 180.633 11.5903 180.294 11.5251C179.941 11.4598 179.602 11.4207 179.211 11.4207C178.832 11.4207 178.467 11.4598 178.128 11.5251C177.789 11.5903 177.502 11.7077 177.306 11.8512C177.11 11.9947 176.967 12.1904 176.876 12.4253C176.784 12.6601 176.745 12.9601 176.745 13.3124V16.7044C176.745 17.0436 176.706 17.3306 176.628 17.5393C176.549 17.7611 176.406 17.9307 176.197 18.0351C176.001 18.1394 175.727 18.2177 175.401 18.2438C175.075 18.2699 174.671 18.296 174.175 18.296H172.87C172.375 18.296 171.97 18.283 171.644 18.2438C171.318 18.2047 171.044 18.1394 170.848 18.0351C170.64 17.9307 170.496 17.7611 170.418 17.5393C170.34 17.3306 170.3 17.0436 170.3 16.7044V15.1388H169.596V17.1349C169.596 17.4871 169.635 17.7872 169.726 18.022C169.818 18.2569 169.961 18.4526 170.157 18.5961C170.353 18.7396 170.64 18.857 170.979 18.9222C171.331 18.9874 171.762 19.0266 172.283 19.0266H174.775C175.297 19.0266 175.727 18.9874 176.08 18.9222C176.419 18.857 176.693 18.7526 176.902 18.5961C177.097 18.4526 177.241 18.2569 177.332 18.022C177.423 17.7872 177.463 17.4871 177.463 17.1349V13.7429C177.463 13.4037 177.502 13.1167 177.58 12.908C177.658 12.6862 177.802 12.5166 178.011 12.4122C178.206 12.3078 178.48 12.2296 178.806 12.2035C178.95 12.1904 179.08 12.1774 179.224 12.1904C179.38 12.1904 179.511 12.1904 179.628 12.2035C179.954 12.2426 180.228 12.3078 180.424 12.4122C180.633 12.5166 180.776 12.6862 180.855 12.908C180.933 13.1167 180.972 13.4037 180.972 13.7429V16.5348H181.676V13.3124C181.676 12.9601 181.637 12.6601 181.546 12.4253C181.468 12.1904 181.311 12.0078 181.115 11.8512Z" fill="#56575B"/>
<path d="M183.893 8.23753H183.188V16.5609H183.893V8.23753Z" fill="#56575B"/>
<path d="M185.889 6.6063C185.771 6.85418 185.628 7.06292 185.445 7.21947C185.262 7.38907 185.028 7.46735 184.754 7.46735C184.532 7.46735 184.297 7.42821 184.075 7.34993C183.854 7.27165 183.632 7.18033 183.423 7.07597C183.188 6.9716 182.966 6.88027 182.732 6.80199C182.497 6.71067 182.275 6.67153 182.079 6.67153C181.923 6.67153 181.779 6.68458 181.649 6.71068C181.544 6.73677 181.44 6.7759 181.323 6.85418L181.218 6.64545C181.375 6.52803 181.531 6.43671 181.701 6.38453C181.884 6.33234 182.04 6.30624 182.197 6.30624C182.366 6.30624 182.562 6.34539 182.797 6.42366C183.032 6.50194 183.253 6.58021 183.462 6.68458C183.697 6.78895 183.932 6.88027 184.154 6.95855C184.375 7.03682 184.584 7.07597 184.741 7.07597C185.002 7.07597 185.21 7.01073 185.367 6.86722C185.497 6.76285 185.589 6.64545 185.667 6.51499L185.889 6.6063Z" fill="#56575B"/>
<path d="M131.672 18.5176C131.672 18.8046 131.438 19.0395 131.151 19.0395C130.864 19.0395 130.616 18.8046 130.616 18.5176C130.616 18.2306 130.851 17.9958 131.151 17.9958C131.438 17.9827 131.672 18.2176 131.672 18.5176Z" fill="#56575B"/>
<path d="M132.977 18.5176C132.977 18.8046 132.742 19.0395 132.455 19.0395C132.168 19.0395 131.92 18.8046 131.92 18.5176C131.92 18.2306 132.155 17.9958 132.455 17.9958C132.742 17.9827 132.977 18.2176 132.977 18.5176Z" fill="#56575B"/>
<path d="M125.724 9.20273C125.724 9.48974 125.489 9.72457 125.202 9.72457C124.915 9.72457 124.667 9.48974 124.667 9.20273C124.667 8.91571 124.902 8.68088 125.202 8.68088C125.489 8.66784 125.724 8.91571 125.724 9.20273Z" fill="#56575B"/>
<path d="M127.029 9.20273C127.029 9.48974 126.794 9.72457 126.507 9.72457C126.22 9.72457 125.972 9.48974 125.972 9.20273C125.972 8.91571 126.207 8.68088 126.507 8.68088C126.794 8.66784 127.029 8.91571 127.029 9.20273Z" fill="#56575B"/>
<path d="M154.58 20.7224C154.58 21.0094 154.345 21.2443 154.058 21.2443C153.771 21.2443 153.523 21.0094 153.523 20.7224C153.523 20.4354 153.758 20.2006 154.058 20.2006C154.345 20.1875 154.58 20.4224 154.58 20.7224Z" fill="#56575B"/>
<path d="M155.884 20.7224C155.884 21.0094 155.649 21.2443 155.362 21.2443C155.075 21.2443 154.828 21.0094 154.828 20.7224C154.828 20.4354 155.062 20.2006 155.362 20.2006C155.649 20.1875 155.884 20.4224 155.884 20.7224Z" fill="#56575B"/>
<path d="M173.08 20.7224C173.08 21.0094 172.845 21.2443 172.558 21.2443C172.271 21.2443 172.023 21.0094 172.023 20.7224C172.023 20.4354 172.258 20.2006 172.558 20.2006C172.845 20.1875 173.08 20.4224 173.08 20.7224Z" fill="#56575B"/>
<path d="M174.384 20.7224C174.384 21.0094 174.149 21.2443 173.862 21.2443C173.575 21.2443 173.327 21.0094 173.327 20.7224C173.327 20.4354 173.562 20.2006 173.862 20.2006C174.149 20.1875 174.384 20.4224 174.384 20.7224Z" fill="#56575B"/>
<path d="M190.546 20.7224C190.546 21.0094 190.312 21.2443 190.025 21.2443C189.738 21.2443 189.49 21.0094 189.49 20.7224C189.49 20.4354 189.725 20.2006 190.025 20.2006C190.312 20.1875 190.546 20.4224 190.546 20.7224Z" fill="#56575B"/>
<path d="M191.851 20.7224C191.851 21.0094 191.616 21.2443 191.329 21.2443C191.042 21.2443 190.794 21.0094 190.794 20.7224C190.794 20.4354 191.029 20.2006 191.329 20.2006C191.616 20.1875 191.851 20.4224 191.851 20.7224Z" fill="#56575B"/>
<path d="M138.078 18.5176C138.078 18.8046 137.843 19.0395 137.556 19.0395C137.269 19.0395 137.021 18.8046 137.021 18.5176C137.021 18.2306 137.256 17.9958 137.556 17.9958C137.843 17.9827 138.078 18.2176 138.078 18.5176Z" fill="#56575B"/>
<path d="M167.039 18.5176C167.039 18.8046 166.805 19.0395 166.518 19.0395C166.231 19.0395 165.983 18.8046 165.983 18.5176C165.983 18.2306 166.218 17.9958 166.518 17.9958C166.805 17.9827 167.039 18.2176 167.039 18.5176Z" fill="#56575B"/>
<path d="M202.47 18.5176C202.47 18.8046 202.235 19.0395 201.948 19.0395C201.661 19.0395 201.413 18.8046 201.413 18.5176C201.413 18.2306 201.648 17.9958 201.948 17.9958C202.222 17.9827 202.47 18.2176 202.47 18.5176Z" fill="#56575B"/>
<path d="M122.461 36.1558C120.817 37.4343 118.939 38.0997 117.36 38.0997C113.916 38.0997 111.555 35.3991 111.555 31.5897C111.555 27.8455 114.112 25.0536 117.425 25.0536C119.473 25.0536 121.209 26.0712 122.409 28.1064L121.952 28.4065L121.052 27.4671C120.034 26.3974 118.965 25.732 117.504 25.732C114.425 25.732 112.35 28.1977 112.35 31.5636C112.35 34.9425 114.229 37.3691 117.504 37.3691C118.652 37.3691 119.917 36.9516 120.948 36.3906L122.174 35.7383L122.461 36.1558Z" fill="#56575B"/>
<path d="M136.862 34.4339H129.753L128.357 37.7737C128.305 37.8911 128.265 37.9041 128.109 37.9041H127.522L132.91 25.2363H133.497C133.627 25.2363 133.666 25.2494 133.732 25.3929L139.158 37.9041H138.506C138.376 37.9041 138.337 37.865 138.297 37.7737L136.862 34.4339ZM130.027 33.8207H136.602L133.275 26.0843L130.027 33.8207Z" fill="#56575B"/>
<path d="M149.243 25.2363C150.808 25.2363 151.878 25.6016 152.53 26.267C153.183 26.9193 153.483 27.8325 153.483 28.9284C153.483 30.2721 153.039 31.5637 152.283 32.4247C151.8 32.9596 151.304 33.1553 150.521 33.1553H145.642V37.9172H144.873V25.2494H149.243V25.2363ZM150.43 32.5422C151.056 32.5422 151.461 32.4117 151.774 32.0464C152.426 31.2767 152.726 30.1025 152.726 28.9675C152.726 27.9108 152.478 27.1541 151.956 26.6714C151.369 26.0974 150.469 25.8625 149.112 25.8625H145.655V32.5291H150.43V32.5422Z" fill="#56575B"/>
<path d="M159.744 25.2363H160.514V37.9041H159.744V25.2363Z" fill="#56575B"/>
<path d="M171.513 37.9041H170.743V25.8625H166.333V25.2363H175.922V25.8625H171.513V37.9041Z" fill="#56575B"/>
<path d="M189.854 34.4339H182.744L181.348 37.7737C181.296 37.8911 181.257 37.9041 181.1 37.9041H180.513L185.901 25.2363H186.488C186.618 25.2363 186.658 25.2494 186.723 25.3929L192.15 37.9041H191.497C191.367 37.9041 191.328 37.865 191.289 37.7737L189.854 34.4339ZM183.018 33.8207H189.593L186.266 26.0843L183.018 33.8207Z" fill="#56575B"/>
<path d="M198.647 37.2779H205.144V37.9041H197.877V25.2363H198.647V37.2779Z" fill="#56575B"/>
<path d="M41.9003 10.3975L49.5313 5.4531V1.57843H41.9003V10.3975Z" fill="#FEC90A"/>
<path d="M82.6488 24.2009C82.6488 24.2009 80.1828 21.6569 73.6454 20.9524C73.6454 20.9524 76.5651 20.8871 80.4736 18.304C85.6035 14.925 83.7772 8.50628 83.7772 8.50628C82.009 1.29174 70.051 1.57875 70.051 1.57875H63.7811H63.7695L56.1503 6.52326V43.4962H70.935C70.935 43.4962 83.0211 43.9006 85.6151 35.3423C85.6267 35.3293 87.8369 28.6888 82.6488 24.2009ZM63.7811 2.33543H69.4926C69.4926 2.33543 75.6345 2.21802 76.2278 8.37582C76.2278 8.37582 76.7745 14.3771 75.0529 17.5343C75.0529 17.5343 73.6105 20.6784 69.4926 20.6784H63.7811V2.33543ZM75.2506 40.7956C75.2506 40.7956 73.6337 42.6873 69.2134 42.6873H63.7927V21.4742H68.9575C68.9575 21.4742 72.075 21.422 73.785 22.5701C73.785 22.5701 76.2859 23.9921 77.0769 27.9321C77.0653 27.9321 78.6706 37.1296 75.2506 40.7956Z" fill="#56575B"/>
<path d="M41.9003 43.4825H49.5313V10.8021L41.9003 15.7466V43.4825Z" fill="#56575B"/>
<path d="M35.2928 20.0257L27.6619 24.9702L24.0908 27.2794V30.2539L27.6619 27.9447V40.1819C26.2311 42.3606 23.1136 43.1564 20.3568 43.1564C13.4006 43.1564 7.66578 35.9941 7.66578 22.5175C7.66578 9.02789 11.9698 5.3228 13.9008 3.62681C15.4944 2.21783 17.9023 1.05673 20.8337 1.05673C26.2311 1.05673 29.8721 3.57463 32.3847 7.24058L33.1524 3.70509C32.5825 3.3137 27.6154 0 21.0896 0C11.6208 0 0 5.68809 0 22.6741C0 38.7338 12.4118 44.2654 20.1125 44.2654C22.4622 44.2654 25.1261 43.9914 27.6736 43.4043C30.6398 42.7129 33.42 41.604 35.3044 39.9862V20.9129V20.0257H35.2928Z" fill="#56575B"/>
</svg>
